<svg width="21" height="21" viewBox="0 0 21 21" fill="none" xmlns="http://www.w3.org/2000/svg">
<g id="calculator_lek94h3951jl 1" clip-path="url(#clip0_1_462)">
<g id="Group">
<path id="Vector" d="M12.0733 8.03904C12.4131 8.03904 12.6885 7.76358 12.6885 7.42381V3.73242C12.6885 3.39265 12.4131 3.11719 12.0733 3.11719H3.20367C2.8639 3.11719 2.58844 3.39265 2.58844 3.73242V7.42381C2.58844 7.76358 2.8639 8.03904 3.20367 8.03904H12.0733ZM3.8189 4.34765H11.4581V6.80858H3.8189V4.34765Z" fill="#EA323E"/>
<path id="Vector_2" d="M20.7204 14.7883L15.2772 11.245V0.615476C15.2772 0.275704 15.0017 0.000244141 14.662 0.000244141H0.615232C0.27546 0.000244141 0 0.275704 0 0.615476V20.3849C0 20.7247 0.27546 21.0002 0.615232 21.0002H18.954C19.2938 21.0002 19.5693 20.7247 19.5693 20.3849V15.5072L20.049 15.8195C20.3333 16.0045 20.7146 15.9248 20.9003 15.6396C21.0857 15.3548 21.0051 14.9737 20.7204 14.7883ZM9.75458 19.7697H1.23046V1.23071H14.0467V11.2449L8.60349 14.7883C8.31876 14.9737 8.23816 15.3548 8.42351 15.6396C8.60894 15.9244 8.99014 16.0049 9.27479 15.8196L9.75458 15.5072V19.7697ZM15.4773 19.7697H13.8464V18.2061H15.4773V19.7697ZM18.3388 19.7697H16.7078V17.5909C16.7078 17.2511 16.4324 16.9757 16.0926 16.9757H13.2312C12.8914 16.9757 12.6159 17.2511 12.6159 17.5909V19.7697H10.985V14.7062L14.6619 12.3127L18.3388 14.7062L18.3388 19.7697Z" fill="#EA323E"/>
<path id="Vector_3" d="M3.79662 10.5C4.1364 10.5 4.41185 10.2245 4.41185 9.88476C4.41185 9.54498 4.1364 9.26953 3.79662 9.26953C3.45684 9.26953 3.18139 9.54498 3.18139 9.88476C3.18139 10.2245 3.45684 10.5 3.79662 10.5Z" fill="#EA323E"/>
<path id="Vector_4" d="M6.35831 10.5C6.6981 10.5 6.97354 10.2245 6.97354 9.88476C6.97354 9.54498 6.6981 9.26953 6.35831 9.26953C6.01853 9.26953 5.74308 9.54498 5.74308 9.88476C5.74308 10.2245 6.01853 10.5 6.35831 10.5Z" fill="#EA323E"/>
<path id="Vector_5" d="M8.92 10.5C9.25979 10.5 9.53524 10.2245 9.53524 9.88476C9.53524 9.54498 9.25979 9.26953 8.92 9.26953C8.58022 9.26953 8.30477 9.54498 8.30477 9.88476C8.30477 10.2245 8.58022 10.5 8.92 10.5Z" fill="#EA323E"/>
<path id="Vector_6" d="M3.79662 12.9609C4.1364 12.9609 4.41185 12.6855 4.41185 12.3457C4.41185 12.0059 4.1364 11.7305 3.79662 11.7305C3.45684 11.7305 3.18139 12.0059 3.18139 12.3457C3.18139 12.6855 3.45684 12.9609 3.79662 12.9609Z" fill="#EA323E"/>
<path id="Vector_7" d="M6.35831 12.9609C6.6981 12.9609 6.97354 12.6855 6.97354 12.3457C6.97354 12.0059 6.6981 11.7305 6.35831 11.7305C6.01853 11.7305 5.74308 12.0059 5.74308 12.3457C5.74308 12.6855 6.01853 12.9609 6.35831 12.9609Z" fill="#EA323E"/>
<path id="Vector_8" d="M3.79662 15.4219C4.1364 15.4219 4.41185 15.1464 4.41185 14.8066C4.41185 14.4669 4.1364 14.1914 3.79662 14.1914C3.45684 14.1914 3.18139 14.4669 3.18139 14.8066C3.18139 15.1464 3.45684 15.4219 3.79662 15.4219Z" fill="#EA323E"/>
<path id="Vector_9" d="M6.35831 15.4219C6.6981 15.4219 6.97354 15.1464 6.97354 14.8066C6.97354 14.4669 6.6981 14.1914 6.35831 14.1914C6.01853 14.1914 5.74308 14.4669 5.74308 14.8066C5.74308 15.1464 6.01853 15.4219 6.35831 15.4219Z" fill="#EA323E"/>
<path id="Vector_10" d="M3.79662 17.8828C4.1364 17.8828 4.41185 17.6074 4.41185 17.2676C4.41185 16.9278 4.1364 16.6523 3.79662 16.6523C3.45684 16.6523 3.18139 16.9278 3.18139 17.2676C3.18139 17.6074 3.45684 17.8828 3.79662 17.8828Z" fill="#EA323E"/>
<path id="Vector_11" d="M6.35831 17.8828C6.6981 17.8828 6.97354 17.6074 6.97354 17.2676C6.97354 16.9278 6.6981 16.6523 6.35831 16.6523C6.01853 16.6523 5.74308 16.9278 5.74308 17.2676C5.74308 17.6074 6.01853 17.8828 6.35831 17.8828Z" fill="#EA323E"/>
<path id="Vector_12" d="M8.92 12.9609C9.25979 12.9609 9.53524 12.6855 9.53524 12.3457C9.53524 12.0059 9.25979 11.7305 8.92 11.7305C8.58022 11.7305 8.30477 12.0059 8.30477 12.3457C8.30477 12.6855 8.58022 12.9609 8.92 12.9609Z" fill="#EA323E"/>
<path id="Vector_13" d="M11.4808 10.5C11.8206 10.5 12.096 10.2245 12.096 9.88476C12.096 9.54498 11.8206 9.26953 11.4808 9.26953C11.141 9.26953 10.8656 9.54498 10.8656 9.88476C10.8656 10.2245 11.141 10.5 11.4808 10.5Z" fill="#EA323E"/>
</g>
</g>
<defs>
<clipPath id="clip0_1_462">
<rect width="21" height="21" fill="white"/>
</clipPath>
</defs>
</svg>
