<svg width="75" height="75" viewBox="0 0 75 75" fill="none" xmlns="http://www.w3.org/2000/svg">
<path d="M74.2241 21.3362C74.2241 21.3362 73.4481 15.7758 71.25 13.319C68.4051 10.0862 65.1724 10.0862 63.75 9.95688C53.2759 9.1811 37.5 9.05176 37.5 9.05176C37.5 9.05176 21.7241 9.1811 11.25 9.95688C9.82764 10.0862 6.59487 10.2156 3.75 13.319C1.42236 15.776 0.775928 21.3362 0.775928 21.3362C0.775928 21.3362 0 27.9311 0 34.526V40.6036C0 47.1985 0.775928 53.664 0.775928 53.664C0.775928 53.664 1.55186 59.2244 3.75 61.6812C6.59487 64.914 10.3449 64.7847 12.0259 65.1727C17.9741 65.819 37.5 65.9483 37.5 65.9483C37.5 65.9483 53.2759 65.9483 63.75 65.0432C65.1724 64.9139 68.4051 64.7845 71.25 61.6811C73.4483 59.2243 74.2241 53.6639 74.2241 53.6639C74.2241 53.6639 75 47.069 75 40.6035V34.5258C75 27.9311 74.2241 21.3362 74.2241 21.3362Z" fill="#D8362A"/>
<path d="M28.4483 24.4397V52.5001L53.0172 38.7933L28.4483 24.4397Z" fill="white"/>
</svg>
